:FULLY-SPECIFIED
:FORCE-ALL-JOINTS-BE-3DOF
:DEGREES
408
root 7.17377 13.7885 -34.2459 158.115 75.4376 151.831
lfemur 18.6425 -2.52605 -10.5222
ltibia 23.7067 0 0
lfoot -23.1582 33.3135 0
ltoes -27.2576 0 0
rfemur -66.5552 -15.8282 8.19158
rtibia 79.2214 0 0
rfoot -14.0449 12.9142 0
rtoes 10.0308 0 0
lowerback 8.32901 4.94124 -11.8816
upperback -2.52121 5.23206 -1.25332
thorax -8.38368 3.12171 4.43322
lowerneck 0.712992 -11.6466 -11.3154
upperneck 3.38945 -15.8583 9.37405
head 2.53891 -7.92962 4.04836
lclavicle -7.09124e-15 2.26513e-14 0
lhumerus -70.0265 -20.0218 106.392
lradius 100.296 0 0
lwrist 51.0354 0 0
lhand -10.0795 43.206 0
lfingers 7.12502 0 0
lthumb 15.9072 72.5728 0
rclavicle -7.09124e-15 2.26513e-14 0
rhumerus 49.3725 -3.92878 -60.1277
rradius 19.9867 0 0
rwrist 18.8307 0 0
rhand -22.1498 -32.8701 0
rfingers 7.12502 0 0
rthumb 4.26416 -62.8071 0
409
root 7.17532 13.7877 -34.2478 158.159 75.4217 151.87
lfemur 18.6144 -2.53538 -10.513
ltibia 23.7347 0 0
lfoot -23.1616 33.3098 0
ltoes -27.2347 0 0
rfemur -66.5571 -15.8426 8.19373
rtibia 79.2207 0 0
rfoot -14.0365 12.9152 0
rtoes 9.97223 0 0
lowerback 8.33809 4.94407 -11.866
upperback -2.51988 5.23618 -1.25656
thorax -8.3861 3.12284 4.41975
lowerneck 0.69743 -11.6507 -11.3061
upperneck 3.37052 -15.8613 9.36853
head 2.53485 -7.93079 4.04488
lclavicle -6.93649e-15 2.22266e-14 0
lhumerus -70.0252 -20.0233 106.385
lradius 100.297 0 0
lwrist 51.0182 0 0
lhand -10.0666 43.1961 0
lfingers 7.12502 0 0
lthumb 15.9195 72.5619 0
rclavicle -6.93649e-15 2.22266e-14 0
rhumerus 49.3904 -3.98106 -60.152
rradius 19.9656 0 0
rwrist 18.8778 0 0
rhand -22.1336 -32.9078 0
rfingers 7.12502 0 0
rthumb 4.27981 -62.8444 0
410
root 7.17686 13.787 -34.2498 158.237 75.4008 151.939
lfemur 18.5763 -2.54846 -10.4984
ltibia 23.7754 0 0
lfoot -23.1695 33.3091 0
ltoes -27.1982 0 0
rfemur -66.5585 -15.8642 8.19856
rtibia 79.2216 0 0
rfoot -14.0307 12.9172 0
rtoes 9.89904 0 0
lowerback 8.34583 4.94533 -11.8452
upperback -2.51977 5.239 -1.25754
thorax -8.38853 3.12319 4.40618
lowerneck 0.677587 -11.6536 -11.2971
upperneck 3.34676 -15.8622 9.36049
head 2.52962 -7.93082 4.04075
lclavicle -6.4384e-15 2.17365e-14 0
lhumerus -70.0275 -20.0231 106.381
lradius 100.296 0 0
lwrist 50.9966 0 0
lhand -10.0509 43.1816 0
lfingers 7.12502 0 0
lthumb 15.9346 72.5461 0
rclavicle -6.4384e-15 2.17365e-14 0
rhumerus 49.4142 -4.04283 -60.1811
rradius 19.9375 0 0
rwrist 18.9341 0 0
rhand -22.1088 -32.9445 0
rfingers 7.12502 0 0
rthumb 4.30376 -62.8807 0
411
root 7.17841 13.7863 -34.2518 158.361 75.3744 152.051
lfemur 18.5264 -2.56606 -10.4768
ltibia 23.8318 0 0
lfoot -23.1839 33.3136 0
ltoes -27.1436 0 0
rfemur -66.5587 -15.895 8.20722
rtibia 79.2252 0 0
rfoot -14.0298 12.9209 0
rtoes 9.81094 0 0
lowerback 8.35041 4.94386 -11.8185
upperback -2.52166 5.23931 -1.2547
thorax -8.39068 3.12221 4.39415
lowerneck 0.653179 -11.6545 -11.2896
upperneck 3.31804 -15.8593 9.34933
head 2.52312 -7.92899 4.03604
lclavicle -5.43749e-15 2.12e-14 0
lhumerus -70.0354 -20.0202 106.38
lradius 100.293 0 0
lwrist 50.9702 0 0
lhand -10.0326 43.1614 0
lfingers 7.12502 0 0
lthumb 15.9523 72.5244 0
rclavicle -5.43749e-15 2.12e-14 0
rhumerus 49.4447 -4.11252 -60.2146
rradius 19.9015 0 0
rwrist 18.9986 0 0
rhand -22.0729 -32.9752 0
rfingers 7.12502 0 0
rthumb 4.33839 -62.9107 0
412
root 7.17996 13.7855 -34.2538 158.543 75.3418 152.216
lfemur 18.4629 -2.58898 -10.4465
ltibia 23.9071 0 0
lfoot -23.2066 33.3253 0
ltoes -27.0668 0 0
rfemur -66.5573 -15.9368 8.22082
rtibia 79.2324 0 0
rfoot -14.0361 12.9268 0
rtoes 9.70764 0 0
lowerback 8.34998 4.93847 -11.7852
upperback -2.52636 5.23594 -1.24644
thorax -8.39224 3.11933 4.38527
lowerneck 0.623923 -11.652 -11.2848
upperneck 3.28422 -15.8512 9.33441
head 2.51524 -7.92456 4.03085
lclavicle -3.77427e-15 2.06361e-14 0
lhumerus -70.051 -20.0134 106.385
lradius 100.288 0 0
lwrist 50.9387 0 0
lhand -10.0117 43.1342 0
lfingers 7.12502 0 0
lthumb 15.9724 72.4956 0
rclavicle -3.77427e-15 2.06361e-14 0
rhumerus 49.4829 -4.18852 -60.2519
rradius 19.8566 0 0
rwrist 19.0702 0 0
rhand -22.0235 -32.9947 0
rfingers 7.12502 0 0
rthumb 4.38605 -62.9291 0
413
root 7.18151 13.7848 -34.2558 158.796 75.3025 152.447
lfemur 18.3842 -2.61798 -10.406
ltibia 24.0044 0 0
lfoot -23.2396 33.3463 0
ltoes -26.9634 0 0
rfemur -66.5536 -15.9918 8.24052
rtibia 79.2443 0 0
rfoot -14.0521 12.9352 0
rtoes 9.58885 0 0
lowerback 8.34272 4.92801 -11.7445
upperback -2.53465 5.22767 -1.2312
thorax -8.39291 3.11401 4.38119
lowerneck 0.589534 -11.6452 -11.284
upperneck 3.24514 -15.8364 9.31513
head 2.50589 -7.91678 4.02526
lclavicle -1.28927e-15 2.00638e-14 0
lhumerus -70.0762 -20.0017 106.398
lradius 100.279 0 0
lwrist 50.9021 0 0
lhand -9.98832 43.0989 0
lfingers 7.12502 0 0
lthumb 15.9949 72.4586 0
rclavicle -1.28927e-15 2.00638e-14 0
rhumerus 49.5294 -4.26925 -60.2926
rradius 19.8017 0 0
rwrist 19.1478 0 0
rhand -21.9582 -32.9977 0
rfingers 7.12502 0 0
rthumb 4.44913 -62.9308 0
414
root 7.18305 13.7841 -34.2577 159.132 75.2558 152.753
lfemur 18.2883 -2.65387 -10.3535
ltibia 24.1268 0 0
lfoot -23.2848 33.3787 0
ltoes -26.8292 0 0
rfemur -66.5472 -16.0617 8.26742
rtibia 79.2619 0 0
rfoot -14.0801 12.9466 0
rtoes 9.45429 0 0
lowerback 8.3268 4.91131 -11.6957
upperback -2.54735 5.21331 -1.20738
thorax -8.39241 3.10569 4.38354
lowerneck 0.549728 -11.6331 -11.2885
upperneck 3.20067 -15.8133 9.29085
head 2.49495 -7.90494 4.01937
lclavicle 2.17698e-15 1.95022e-14 0
lhumerus -70.113 -19.9841 106.42
lradius 100.267 0 0
lwrist 50.8601 0 0
lhand -9.96268 43.0545 0
lfingers 7.12502 0 0
lthumb 16.0196 72.4121 0
rclavicle 2.17698e-15 1.95022e-14 0
rhumerus 49.5852 -4.35313 -60.3361
rradius 19.736 0 0
rwrist 19.2303 0 0
rhand -21.8744 -32.9791 0
rfingers 7.12502 0 0
rthumb 4.52999 -62.9105 0
